<?xml version="1.0" encoding="UTF-8" standalone="no"?>
<svg width="100%" height="100%" viewBox="0 0 352 224" version="1.1" xmlns="http://www.w3.org/2000/svg" xmlns:xlink="http://www.w3.org/1999/xlink" xml:space="preserve" xmlns:serif="http://www.serif.com/" style="fill-rule:evenodd;clip-rule:evenodd;stroke-linejoin:round;stroke-miterlimit:2;">
    <path id="Content-Background" serif:id="Content Background" d="M352,11.2c0,-6.181 -5.019,-11.2 -11.2,-11.2l-329.6,0c-6.181,0 -11.2,5.019 -11.2,11.2l0,201.6c0,6.181 5.019,11.2 11.2,11.2l329.6,0c6.181,0 11.2,-5.019 11.2,-11.2l0,-201.6Z" style="fill:#fbf2ab;" />
    <clipPath id="_clip1">
        <path d="M352,11.2c0,-6.181 -5.019,-11.2 -11.2,-11.2l-329.6,0c-6.181,0 -11.2,5.019 -11.2,11.2l0,201.6c0,6.181 5.019,11.2 11.2,11.2l329.6,0c6.181,0 11.2,-5.019 11.2,-11.2l0,-201.6Z" />
    </clipPath>
    <g clip-path="url(#_clip1)">
        <path d="M17.635,39.758c1.989,0 3.05,-1.247 3.21,-3.077c0,-0.265 0.026,-0.53 0.026,-0.796c0.159,-3.209 1.379,-4.615 5.703,-7.454c4.669,-3.077 7.428,-6.578 7.428,-11.645c0,-8.064 -6.579,-12.786 -15.12,-12.786c-6.393,0 -11.752,2.865 -14.033,7.799c-0.584,1.22 -0.849,2.467 -0.849,3.581c0,1.857 1.141,3.13 3.13,3.13c1.592,0 2.759,-0.875 3.263,-2.334c1.326,-4.483 4.297,-6.234 8.197,-6.234c4.669,0 8.329,2.679 8.329,6.87c0,3.608 -2.148,5.545 -5.809,8.012c-4.006,2.732 -6.871,5.676 -6.871,10.106l0,1.406c0,2.016 1.247,3.422 3.396,3.422Zm0.026,14.802c2.441,0 4.404,-1.936 4.404,-4.324c0,-2.414 -1.963,-4.324 -4.404,-4.324c-2.414,0 -4.377,1.91 -4.377,4.324c0,2.388 1.963,4.324 4.377,4.324Z" style="fill-opacity:0.25;fill-rule:nonzero;" />
        <path d="M17.635,135.758c1.989,0 3.05,-1.247 3.21,-3.077c0,-0.265 0.026,-0.53 0.026,-0.796c0.159,-3.209 1.379,-4.615 5.703,-7.454c4.669,-3.077 7.428,-6.578 7.428,-11.645c0,-8.064 -6.579,-12.786 -15.12,-12.786c-6.393,0 -11.752,2.865 -14.033,7.799c-0.584,1.22 -0.849,2.467 -0.849,3.581c0,1.857 1.141,3.13 3.13,3.13c1.592,0 2.759,-0.875 3.263,-2.334c1.326,-4.483 4.297,-6.234 8.197,-6.234c4.669,0 8.329,2.679 8.329,6.87c0,3.608 -2.148,5.545 -5.809,8.012c-4.006,2.732 -6.871,5.676 -6.871,10.106l0,1.406c0,2.016 1.247,3.422 3.396,3.422Zm0.026,14.802c2.441,0 4.404,-1.936 4.404,-4.324c0,-2.414 -1.963,-4.324 -4.404,-4.324c-2.414,0 -4.377,1.91 -4.377,4.324c0,2.388 1.963,4.324 4.377,4.324Z" style="fill-opacity:0.25;fill-rule:nonzero;" />
        <path d="M17.635,231.758c1.989,0 3.05,-1.247 3.21,-3.077c0,-0.265 0.026,-0.53 0.026,-0.796c0.159,-3.209 1.379,-4.615 5.703,-7.454c4.669,-3.077 7.428,-6.578 7.428,-11.645c0,-8.064 -6.579,-12.786 -15.12,-12.786c-6.393,0 -11.752,2.865 -14.033,7.799c-0.584,1.22 -0.849,2.467 -0.849,3.581c0,1.857 1.141,3.13 3.13,3.13c1.592,0 2.759,-0.875 3.263,-2.334c1.326,-4.483 4.297,-6.234 8.197,-6.234c4.669,0 8.329,2.679 8.329,6.87c0,3.608 -2.148,5.545 -5.809,8.012c-4.006,2.732 -6.871,5.676 -6.871,10.106l0,1.406c0,2.016 1.247,3.422 3.396,3.422Zm0.026,14.802c2.441,0 4.404,-1.936 4.404,-4.324c0,-2.414 -1.963,-4.324 -4.404,-4.324c-2.414,0 -4.377,1.91 -4.377,4.324c0,2.388 1.963,4.324 4.377,4.324Z" style="fill-opacity:0.25;fill-rule:nonzero;" />
        <path d="M81.635,-8.242c1.989,0 3.05,-1.247 3.21,-3.077c0,-0.265 0.026,-0.53 0.026,-0.796c0.159,-3.209 1.379,-4.615 5.703,-7.454c4.669,-3.077 7.428,-6.578 7.428,-11.645c0,-8.064 -6.579,-12.786 -15.12,-12.786c-6.393,0 -11.752,2.865 -14.033,7.799c-0.584,1.22 -0.849,2.467 -0.849,3.581c0,1.857 1.141,3.13 3.13,3.13c1.592,0 2.759,-0.875 3.263,-2.334c1.326,-4.483 4.297,-6.234 8.197,-6.234c4.669,0 8.329,2.679 8.329,6.87c0,3.608 -2.148,5.545 -5.809,8.012c-4.006,2.732 -6.871,5.676 -6.871,10.106l0,1.406c0,2.016 1.247,3.422 3.396,3.422Zm0.026,14.802c2.441,0 4.404,-1.936 4.404,-4.324c0,-2.414 -1.963,-4.324 -4.404,-4.324c-2.414,0 -4.377,1.91 -4.377,4.324c0,2.388 1.963,4.324 4.377,4.324Z" style="fill-opacity:0.25;fill-rule:nonzero;" />
        <path d="M81.635,87.758c1.989,0 3.05,-1.247 3.21,-3.077c0,-0.265 0.026,-0.53 0.026,-0.796c0.159,-3.209 1.379,-4.615 5.703,-7.454c4.669,-3.077 7.428,-6.578 7.428,-11.645c0,-8.064 -6.579,-12.786 -15.12,-12.786c-6.393,0 -11.752,2.865 -14.033,7.799c-0.584,1.22 -0.849,2.467 -0.849,3.581c0,1.857 1.141,3.13 3.13,3.13c1.592,0 2.759,-0.875 3.263,-2.334c1.326,-4.483 4.297,-6.234 8.197,-6.234c4.669,0 8.329,2.679 8.329,6.87c0,3.608 -2.148,5.545 -5.809,8.012c-4.006,2.732 -6.871,5.676 -6.871,10.106l0,1.406c0,2.016 1.247,3.422 3.396,3.422Zm0.026,14.802c2.441,0 4.404,-1.936 4.404,-4.324c0,-2.414 -1.963,-4.324 -4.404,-4.324c-2.414,0 -4.377,1.91 -4.377,4.324c0,2.388 1.963,4.324 4.377,4.324Z" style="fill-opacity:0.25;fill-rule:nonzero;" />
        <path d="M81.635,183.758c1.989,0 3.05,-1.247 3.21,-3.077c0,-0.265 0.026,-0.53 0.026,-0.796c0.159,-3.209 1.379,-4.615 5.703,-7.454c4.669,-3.077 7.428,-6.578 7.428,-11.645c0,-8.064 -6.579,-12.786 -15.12,-12.786c-6.393,0 -11.752,2.865 -14.033,7.799c-0.584,1.22 -0.849,2.467 -0.849,3.581c0,1.857 1.141,3.13 3.13,3.13c1.592,0 2.759,-0.875 3.263,-2.334c1.326,-4.483 4.297,-6.234 8.197,-6.234c4.669,0 8.329,2.679 8.329,6.87c0,3.608 -2.148,5.545 -5.809,8.012c-4.006,2.732 -6.871,5.676 -6.871,10.106l0,1.406c0,2.016 1.247,3.422 3.396,3.422Zm0.026,14.802c2.441,0 4.404,-1.936 4.404,-4.324c0,-2.414 -1.963,-4.324 -4.404,-4.324c-2.414,0 -4.377,1.91 -4.377,4.324c0,2.388 1.963,4.324 4.377,4.324Z" style="fill-opacity:0.25;fill-rule:nonzero;" />
        <path d="M145.635,39.758c1.989,0 3.05,-1.247 3.21,-3.077c0,-0.265 0.026,-0.53 0.026,-0.796c0.159,-3.209 1.379,-4.615 5.703,-7.454c4.669,-3.077 7.428,-6.578 7.428,-11.645c0,-8.064 -6.579,-12.786 -15.12,-12.786c-6.393,0 -11.752,2.865 -14.033,7.799c-0.584,1.22 -0.849,2.467 -0.849,3.581c0,1.857 1.141,3.13 3.13,3.13c1.592,0 2.759,-0.875 3.263,-2.334c1.326,-4.483 4.297,-6.234 8.197,-6.234c4.669,0 8.329,2.679 8.329,6.87c0,3.608 -2.148,5.545 -5.809,8.012c-4.006,2.732 -6.871,5.676 -6.871,10.106l0,1.406c0,2.016 1.247,3.422 3.396,3.422Zm0.026,14.802c2.441,0 4.404,-1.936 4.404,-4.324c0,-2.414 -1.963,-4.324 -4.404,-4.324c-2.414,0 -4.377,1.91 -4.377,4.324c0,2.388 1.963,4.324 4.377,4.324Z" style="fill-opacity:0.25;fill-rule:nonzero;" />
        <path d="M145.635,135.758c1.989,0 3.05,-1.247 3.21,-3.077c0,-0.265 0.026,-0.53 0.026,-0.796c0.159,-3.209 1.379,-4.615 5.703,-7.454c4.669,-3.077 7.428,-6.578 7.428,-11.645c0,-8.064 -6.579,-12.786 -15.12,-12.786c-6.393,0 -11.752,2.865 -14.033,7.799c-0.584,1.22 -0.849,2.467 -0.849,3.581c0,1.857 1.141,3.13 3.13,3.13c1.592,0 2.759,-0.875 3.263,-2.334c1.326,-4.483 4.297,-6.234 8.197,-6.234c4.669,0 8.329,2.679 8.329,6.87c0,3.608 -2.148,5.545 -5.809,8.012c-4.006,2.732 -6.871,5.676 -6.871,10.106l0,1.406c0,2.016 1.247,3.422 3.396,3.422Zm0.026,14.802c2.441,0 4.404,-1.936 4.404,-4.324c0,-2.414 -1.963,-4.324 -4.404,-4.324c-2.414,0 -4.377,1.91 -4.377,4.324c0,2.388 1.963,4.324 4.377,4.324Z" style="fill-opacity:0.25;fill-rule:nonzero;" />
        <path d="M145.635,231.758c1.989,0 3.05,-1.247 3.21,-3.077c0,-0.265 0.026,-0.53 0.026,-0.796c0.159,-3.209 1.379,-4.615 5.703,-7.454c4.669,-3.077 7.428,-6.578 7.428,-11.645c0,-8.064 -6.579,-12.786 -15.12,-12.786c-6.393,0 -11.752,2.865 -14.033,7.799c-0.584,1.22 -0.849,2.467 -0.849,3.581c0,1.857 1.141,3.13 3.13,3.13c1.592,0 2.759,-0.875 3.263,-2.334c1.326,-4.483 4.297,-6.234 8.197,-6.234c4.669,0 8.329,2.679 8.329,6.87c0,3.608 -2.148,5.545 -5.809,8.012c-4.006,2.732 -6.871,5.676 -6.871,10.106l0,1.406c0,2.016 1.247,3.422 3.396,3.422Zm0.026,14.802c2.441,0 4.404,-1.936 4.404,-4.324c0,-2.414 -1.963,-4.324 -4.404,-4.324c-2.414,0 -4.377,1.91 -4.377,4.324c0,2.388 1.963,4.324 4.377,4.324Z" style="fill-opacity:0.25;fill-rule:nonzero;" />
        <path d="M209.635,-8.242c1.989,0 3.05,-1.247 3.21,-3.077c0,-0.265 0.026,-0.53 0.026,-0.796c0.159,-3.209 1.379,-4.615 5.703,-7.454c4.669,-3.077 7.428,-6.578 7.428,-11.645c0,-8.064 -6.579,-12.786 -15.12,-12.786c-6.393,0 -11.752,2.865 -14.033,7.799c-0.584,1.22 -0.849,2.467 -0.849,3.581c0,1.857 1.141,3.13 3.13,3.13c1.592,0 2.759,-0.875 3.263,-2.334c1.326,-4.483 4.297,-6.234 8.197,-6.234c4.669,0 8.329,2.679 8.329,6.87c0,3.608 -2.148,5.545 -5.809,8.012c-4.006,2.732 -6.871,5.676 -6.871,10.106l0,1.406c0,2.016 1.247,3.422 3.396,3.422Zm0.026,14.802c2.441,0 4.404,-1.936 4.404,-4.324c0,-2.414 -1.963,-4.324 -4.404,-4.324c-2.414,0 -4.377,1.91 -4.377,4.324c0,2.388 1.963,4.324 4.377,4.324Z" style="fill-opacity:0.25;fill-rule:nonzero;" />
        <path d="M209.635,87.758c1.989,0 3.05,-1.247 3.21,-3.077c0,-0.265 0.026,-0.53 0.026,-0.796c0.159,-3.209 1.379,-4.615 5.703,-7.454c4.669,-3.077 7.428,-6.578 7.428,-11.645c0,-8.064 -6.579,-12.786 -15.12,-12.786c-6.393,0 -11.752,2.865 -14.033,7.799c-0.584,1.22 -0.849,2.467 -0.849,3.581c0,1.857 1.141,3.13 3.13,3.13c1.592,0 2.759,-0.875 3.263,-2.334c1.326,-4.483 4.297,-6.234 8.197,-6.234c4.669,0 8.329,2.679 8.329,6.87c0,3.608 -2.148,5.545 -5.809,8.012c-4.006,2.732 -6.871,5.676 -6.871,10.106l0,1.406c0,2.016 1.247,3.422 3.396,3.422Zm0.026,14.802c2.441,0 4.404,-1.936 4.404,-4.324c0,-2.414 -1.963,-4.324 -4.404,-4.324c-2.414,0 -4.377,1.91 -4.377,4.324c0,2.388 1.963,4.324 4.377,4.324Z" style="fill-opacity:0.25;fill-rule:nonzero;" />
        <path d="M209.635,183.758c1.989,0 3.05,-1.247 3.21,-3.077c0,-0.265 0.026,-0.53 0.026,-0.796c0.159,-3.209 1.379,-4.615 5.703,-7.454c4.669,-3.077 7.428,-6.578 7.428,-11.645c0,-8.064 -6.579,-12.786 -15.12,-12.786c-6.393,0 -11.752,2.865 -14.033,7.799c-0.584,1.22 -0.849,2.467 -0.849,3.581c0,1.857 1.141,3.13 3.13,3.13c1.592,0 2.759,-0.875 3.263,-2.334c1.326,-4.483 4.297,-6.234 8.197,-6.234c4.669,0 8.329,2.679 8.329,6.87c0,3.608 -2.148,5.545 -5.809,8.012c-4.006,2.732 -6.871,5.676 -6.871,10.106l0,1.406c0,2.016 1.247,3.422 3.396,3.422Zm0.026,14.802c2.441,0 4.404,-1.936 4.404,-4.324c0,-2.414 -1.963,-4.324 -4.404,-4.324c-2.414,0 -4.377,1.91 -4.377,4.324c0,2.388 1.963,4.324 4.377,4.324Z" style="fill-opacity:0.25;fill-rule:nonzero;" />
        <path d="M273.635,39.758c1.989,0 3.05,-1.247 3.21,-3.077c0,-0.265 0.026,-0.53 0.026,-0.796c0.159,-3.209 1.379,-4.615 5.703,-7.454c4.669,-3.077 7.428,-6.578 7.428,-11.645c0,-8.064 -6.579,-12.786 -15.12,-12.786c-6.393,0 -11.752,2.865 -14.033,7.799c-0.584,1.22 -0.849,2.467 -0.849,3.581c0,1.857 1.141,3.13 3.13,3.13c1.592,0 2.759,-0.875 3.263,-2.334c1.326,-4.483 4.297,-6.234 8.197,-6.234c4.669,0 8.329,2.679 8.329,6.87c0,3.608 -2.148,5.545 -5.809,8.012c-4.006,2.732 -6.871,5.676 -6.871,10.106l0,1.406c0,2.016 1.247,3.422 3.396,3.422Zm0.026,14.802c2.441,0 4.404,-1.936 4.404,-4.324c0,-2.414 -1.963,-4.324 -4.404,-4.324c-2.414,0 -4.377,1.91 -4.377,4.324c0,2.388 1.963,4.324 4.377,4.324Z" style="fill-opacity:0.25;fill-rule:nonzero;" />
        <path d="M273.635,135.758c1.989,0 3.05,-1.247 3.21,-3.077c0,-0.265 0.026,-0.53 0.026,-0.796c0.159,-3.209 1.379,-4.615 5.703,-7.454c4.669,-3.077 7.428,-6.578 7.428,-11.645c0,-8.064 -6.579,-12.786 -15.12,-12.786c-6.393,0 -11.752,2.865 -14.033,7.799c-0.584,1.22 -0.849,2.467 -0.849,3.581c0,1.857 1.141,3.13 3.13,3.13c1.592,0 2.759,-0.875 3.263,-2.334c1.326,-4.483 4.297,-6.234 8.197,-6.234c4.669,0 8.329,2.679 8.329,6.87c0,3.608 -2.148,5.545 -5.809,8.012c-4.006,2.732 -6.871,5.676 -6.871,10.106l0,1.406c0,2.016 1.247,3.422 3.396,3.422Zm0.026,14.802c2.441,0 4.404,-1.936 4.404,-4.324c0,-2.414 -1.963,-4.324 -4.404,-4.324c-2.414,0 -4.377,1.91 -4.377,4.324c0,2.388 1.963,4.324 4.377,4.324Z" style="fill-opacity:0.25;fill-rule:nonzero;" />
        <path d="M273.635,231.758c1.989,0 3.05,-1.247 3.21,-3.077c0,-0.265 0.026,-0.53 0.026,-0.796c0.159,-3.209 1.379,-4.615 5.703,-7.454c4.669,-3.077 7.428,-6.578 7.428,-11.645c0,-8.064 -6.579,-12.786 -15.12,-12.786c-6.393,0 -11.752,2.865 -14.033,7.799c-0.584,1.22 -0.849,2.467 -0.849,3.581c0,1.857 1.141,3.13 3.13,3.13c1.592,0 2.759,-0.875 3.263,-2.334c1.326,-4.483 4.297,-6.234 8.197,-6.234c4.669,0 8.329,2.679 8.329,6.87c0,3.608 -2.148,5.545 -5.809,8.012c-4.006,2.732 -6.871,5.676 -6.871,10.106l0,1.406c0,2.016 1.247,3.422 3.396,3.422Zm0.026,14.802c2.441,0 4.404,-1.936 4.404,-4.324c0,-2.414 -1.963,-4.324 -4.404,-4.324c-2.414,0 -4.377,1.91 -4.377,4.324c0,2.388 1.963,4.324 4.377,4.324Z" style="fill-opacity:0.25;fill-rule:nonzero;" />
        <path d="M337.635,-8.242c1.989,0 3.05,-1.247 3.21,-3.077c0,-0.265 0.026,-0.53 0.026,-0.796c0.159,-3.209 1.379,-4.615 5.703,-7.454c4.669,-3.077 7.428,-6.578 7.428,-11.645c0,-8.064 -6.579,-12.786 -15.12,-12.786c-6.393,0 -11.752,2.865 -14.033,7.799c-0.584,1.22 -0.849,2.467 -0.849,3.581c0,1.857 1.141,3.13 3.13,3.13c1.592,0 2.759,-0.875 3.263,-2.334c1.326,-4.483 4.297,-6.234 8.197,-6.234c4.669,0 8.329,2.679 8.329,6.87c0,3.608 -2.148,5.545 -5.809,8.012c-4.006,2.732 -6.871,5.676 -6.871,10.106l0,1.406c0,2.016 1.247,3.422 3.396,3.422Zm0.026,14.802c2.441,0 4.404,-1.936 4.404,-4.324c0,-2.414 -1.963,-4.324 -4.404,-4.324c-2.414,0 -4.377,1.91 -4.377,4.324c0,2.388 1.963,4.324 4.377,4.324Z" style="fill-opacity:0.25;fill-rule:nonzero;" />
        <path d="M337.635,87.758c1.989,0 3.05,-1.247 3.21,-3.077c0,-0.265 0.026,-0.53 0.026,-0.796c0.159,-3.209 1.379,-4.615 5.703,-7.454c4.669,-3.077 7.428,-6.578 7.428,-11.645c0,-8.064 -6.579,-12.786 -15.12,-12.786c-6.393,0 -11.752,2.865 -14.033,7.799c-0.584,1.22 -0.849,2.467 -0.849,3.581c0,1.857 1.141,3.13 3.13,3.13c1.592,0 2.759,-0.875 3.263,-2.334c1.326,-4.483 4.297,-6.234 8.197,-6.234c4.669,0 8.329,2.679 8.329,6.87c0,3.608 -2.148,5.545 -5.809,8.012c-4.006,2.732 -6.871,5.676 -6.871,10.106l0,1.406c0,2.016 1.247,3.422 3.396,3.422Zm0.026,14.802c2.441,0 4.404,-1.936 4.404,-4.324c0,-2.414 -1.963,-4.324 -4.404,-4.324c-2.414,0 -4.377,1.91 -4.377,4.324c0,2.388 1.963,4.324 4.377,4.324Z" style="fill-opacity:0.25;fill-rule:nonzero;" />
        <path d="M337.635,183.758c1.989,0 3.05,-1.247 3.21,-3.077c0,-0.265 0.026,-0.53 0.026,-0.796c0.159,-3.209 1.379,-4.615 5.703,-7.454c4.669,-3.077 7.428,-6.578 7.428,-11.645c0,-8.064 -6.579,-12.786 -15.12,-12.786c-6.393,0 -11.752,2.865 -14.033,7.799c-0.584,1.22 -0.849,2.467 -0.849,3.581c0,1.857 1.141,3.13 3.13,3.13c1.592,0 2.759,-0.875 3.263,-2.334c1.326,-4.483 4.297,-6.234 8.197,-6.234c4.669,0 8.329,2.679 8.329,6.87c0,3.608 -2.148,5.545 -5.809,8.012c-4.006,2.732 -6.871,5.676 -6.871,10.106l0,1.406c0,2.016 1.247,3.422 3.396,3.422Zm0.026,14.802c2.441,0 4.404,-1.936 4.404,-4.324c0,-2.414 -1.963,-4.324 -4.404,-4.324c-2.414,0 -4.377,1.91 -4.377,4.324c0,2.388 1.963,4.324 4.377,4.324Z" style="fill-opacity:0.25;fill-rule:nonzero;" />
    </g>
</svg>