<?xml version="1.0" encoding="UTF-8" standalone="no"?>
<svg preserveAspectRatio="none" width="100%" height="100%" viewBox="0 0 246 160" version="1.1" xmlns="http://www.w3.org/2000/svg" xmlns:xlink="http://www.w3.org/1999/xlink" xml:space="preserve" style="fill-rule:evenodd;clip-rule:evenodd;stroke-linejoin:round;stroke-miterlimit:2;">
    <path id="Content-Background" d="M246,8c0,-4.415 -3.585,-8 -8,-8l-230,0c-4.415,0 -8,3.585 -8,8l0,144c0,4.415 3.585,8 8,8l230,0c4.415,0 8,-3.585 8,-8l0,-144Z" style="fill:#fbf2ab;" />
    <clipPath id="_clip1">
        <path d="M246,8c0,-4.415 -3.585,-8 -8,-8l-230,0c-4.415,0 -8,3.585 -8,8l0,144c0,4.415 3.585,8 8,8l230,0c4.415,0 8,-3.585 8,-8l0,-144Z" />
    </clipPath>
    <g clip-path="url(#_clip1)">
        <path d="M12.324,28.399c1.391,0 2.132,-0.891 2.244,-2.198c0,-0.19 0.018,-0.379 0.018,-0.569c0.111,-2.292 0.964,-3.297 3.986,-5.324c3.263,-2.198 5.191,-4.699 5.191,-8.318c0,-5.76 -4.598,-9.133 -10.567,-9.133c-4.468,0 -8.213,2.047 -9.807,5.571c-0.408,0.871 -0.594,1.762 -0.594,2.558c0,1.326 0.798,2.236 2.188,2.236c1.112,0 1.928,-0.626 2.28,-1.668c0.927,-3.202 3.004,-4.453 5.729,-4.453c3.263,0 5.821,1.914 5.821,4.908c0,2.577 -1.502,3.96 -4.06,5.722c-2.799,1.952 -4.802,4.055 -4.802,7.219l0,1.004c0,1.441 0.872,2.445 2.373,2.445Zm0.019,10.573c1.705,0 3.077,-1.384 3.077,-3.089c0,-1.724 -1.372,-3.088 -3.077,-3.088c-1.687,0 -3.059,1.364 -3.059,3.088c0,1.705 1.372,3.089 3.059,3.089Z" style="fill-opacity:0.25;fill-rule:nonzero;" />
        <path d="M12.324,96.97c1.391,0 2.132,-0.89 2.244,-2.198c0,-0.189 0.018,-0.379 0.018,-0.568c0.111,-2.293 0.964,-3.297 3.986,-5.325c3.263,-2.197 5.191,-4.699 5.191,-8.318c0,-5.76 -4.598,-9.132 -10.567,-9.132c-4.468,0 -8.213,2.046 -9.807,5.57c-0.408,0.872 -0.594,1.762 -0.594,2.558c0,1.327 0.798,2.236 2.188,2.236c1.112,0 1.928,-0.625 2.28,-1.667c0.927,-3.203 3.004,-4.453 5.729,-4.453c3.263,0 5.821,1.914 5.821,4.907c0,2.577 -1.502,3.96 -4.06,5.723c-2.799,1.951 -4.802,4.054 -4.802,7.219l0,1.004c0,1.44 0.872,2.444 2.373,2.444Zm0.019,10.573c1.705,0 3.077,-1.383 3.077,-3.088c0,-1.725 -1.372,-3.089 -3.077,-3.089c-1.687,0 -3.059,1.364 -3.059,3.089c0,1.705 1.372,3.088 3.059,3.088Z" style="fill-opacity:0.25;fill-rule:nonzero;" />
        <path d="M12.324,165.542c1.391,0 2.132,-0.891 2.244,-2.198c0,-0.19 0.018,-0.379 0.018,-0.569c0.111,-2.292 0.964,-3.297 3.986,-5.324c3.263,-2.198 5.191,-4.699 5.191,-8.318c0,-5.76 -4.598,-9.133 -10.567,-9.133c-4.468,0 -8.213,2.046 -9.807,5.571c-0.408,0.871 -0.594,1.762 -0.594,2.558c0,1.326 0.798,2.235 2.188,2.235c1.112,0 1.928,-0.625 2.28,-1.667c0.927,-3.202 3.004,-4.453 5.729,-4.453c3.263,0 5.821,1.914 5.821,4.908c0,2.577 -1.502,3.96 -4.06,5.722c-2.799,1.952 -4.802,4.055 -4.802,7.219l0,1.004c0,1.44 0.872,2.445 2.373,2.445Zm0.019,10.572c1.705,0 3.077,-1.383 3.077,-3.088c0,-1.724 -1.372,-3.089 -3.077,-3.089c-1.687,0 -3.059,1.365 -3.059,3.089c0,1.705 1.372,3.088 3.059,3.088Z" style="fill-opacity:0.25;fill-rule:nonzero;" />
        <path d="M57.052,-5.887c1.39,0 2.132,-0.891 2.243,-2.198c0,-0.189 0.018,-0.379 0.018,-0.568c0.112,-2.293 0.964,-3.297 3.986,-5.325c3.263,-2.198 5.191,-4.699 5.191,-8.318c0,-5.76 -4.598,-9.133 -10.567,-9.133c-4.468,0 -8.213,2.047 -9.807,5.571c-0.408,0.872 -0.593,1.762 -0.593,2.558c0,1.326 0.797,2.236 2.187,2.236c1.113,0 1.928,-0.625 2.281,-1.668c0.926,-3.202 3.003,-4.452 5.728,-4.452c3.263,0 5.821,1.913 5.821,4.907c0,2.577 -1.501,3.96 -4.06,5.722c-2.799,1.952 -4.801,4.055 -4.801,7.22l0,1.004c0,1.44 0.871,2.444 2.373,2.444Zm0.018,10.573c1.706,0 3.078,-1.383 3.078,-3.089c0,-1.724 -1.372,-3.088 -3.078,-3.088c-1.687,0 -3.059,1.364 -3.059,3.088c0,1.706 1.372,3.089 3.059,3.089Z" style="fill-opacity:0.25;fill-rule:nonzero;" />
        <path d="M57.052,62.684c1.39,0 2.132,-0.89 2.243,-2.197c0,-0.19 0.018,-0.379 0.018,-0.569c0.112,-2.293 0.964,-3.297 3.986,-5.324c3.263,-2.198 5.191,-4.699 5.191,-8.318c0,-5.76 -4.598,-9.133 -10.567,-9.133c-4.468,0 -8.213,2.046 -9.807,5.571c-0.408,0.871 -0.593,1.762 -0.593,2.557c0,1.327 0.797,2.236 2.187,2.236c1.113,0 1.928,-0.625 2.281,-1.667c0.926,-3.202 3.003,-4.453 5.728,-4.453c3.263,0 5.821,1.914 5.821,4.908c0,2.577 -1.501,3.96 -4.06,5.722c-2.799,1.951 -4.801,4.055 -4.801,7.219l0,1.004c0,1.44 0.871,2.444 2.373,2.444Zm0.018,10.573c1.706,0 3.078,-1.383 3.078,-3.088c0,-1.724 -1.372,-3.089 -3.078,-3.089c-1.687,0 -3.059,1.365 -3.059,3.089c0,1.705 1.372,3.088 3.059,3.088Z" style="fill-opacity:0.25;fill-rule:nonzero;" />
        <path d="M57.052,131.256c1.39,0 2.132,-0.891 2.243,-2.198c0,-0.19 0.018,-0.379 0.018,-0.568c0.112,-2.293 0.964,-3.297 3.986,-5.325c3.263,-2.198 5.191,-4.699 5.191,-8.318c0,-5.76 -4.598,-9.133 -10.567,-9.133c-4.468,0 -8.213,2.047 -9.807,5.571c-0.408,0.872 -0.593,1.762 -0.593,2.558c0,1.326 0.797,2.236 2.187,2.236c1.113,0 1.928,-0.626 2.281,-1.668c0.926,-3.202 3.003,-4.452 5.728,-4.452c3.263,0 5.821,1.913 5.821,4.907c0,2.577 -1.501,3.96 -4.06,5.722c-2.799,1.952 -4.801,4.055 -4.801,7.219l0,1.005c0,1.44 0.871,2.444 2.373,2.444Zm0.018,10.573c1.706,0 3.078,-1.383 3.078,-3.089c0,-1.724 -1.372,-3.088 -3.078,-3.088c-1.687,0 -3.059,1.364 -3.059,3.088c0,1.706 1.372,3.089 3.059,3.089Z" style="fill-opacity:0.25;fill-rule:nonzero;" />
        <path d="M101.779,28.399c1.39,0 2.132,-0.891 2.243,-2.198c0,-0.19 0.019,-0.379 0.019,-0.569c0.111,-2.292 0.964,-3.297 3.985,-5.324c3.263,-2.198 5.191,-4.699 5.191,-8.318c0,-5.76 -4.597,-9.133 -10.567,-9.133c-4.468,0 -8.212,2.047 -9.807,5.571c-0.408,0.871 -0.593,1.762 -0.593,2.558c0,1.326 0.797,2.236 2.188,2.236c1.112,0 1.928,-0.626 2.28,-1.668c0.927,-3.202 3.003,-4.453 5.728,-4.453c3.263,0 5.821,1.914 5.821,4.908c0,2.577 -1.501,3.96 -4.06,5.722c-2.799,1.952 -4.801,4.055 -4.801,7.219l0,1.004c0,1.441 0.871,2.445 2.373,2.445Zm0.018,10.573c1.706,0 3.078,-1.384 3.078,-3.089c0,-1.724 -1.372,-3.088 -3.078,-3.088c-1.687,0 -3.058,1.364 -3.058,3.088c0,1.705 1.371,3.089 3.058,3.089Z" style="fill-opacity:0.25;fill-rule:nonzero;" />
        <path d="M101.779,96.97c1.39,0 2.132,-0.89 2.243,-2.198c0,-0.189 0.019,-0.379 0.019,-0.568c0.111,-2.293 0.964,-3.297 3.985,-5.325c3.263,-2.197 5.191,-4.699 5.191,-8.318c0,-5.76 -4.597,-9.132 -10.567,-9.132c-4.468,0 -8.212,2.046 -9.807,5.57c-0.408,0.872 -0.593,1.762 -0.593,2.558c0,1.327 0.797,2.236 2.188,2.236c1.112,0 1.928,-0.625 2.28,-1.667c0.927,-3.203 3.003,-4.453 5.728,-4.453c3.263,0 5.821,1.914 5.821,4.907c0,2.577 -1.501,3.96 -4.06,5.723c-2.799,1.951 -4.801,4.054 -4.801,7.219l0,1.004c0,1.44 0.871,2.444 2.373,2.444Zm0.018,10.573c1.706,0 3.078,-1.383 3.078,-3.088c0,-1.725 -1.372,-3.089 -3.078,-3.089c-1.687,0 -3.058,1.364 -3.058,3.089c0,1.705 1.371,3.088 3.058,3.088Z" style="fill-opacity:0.25;fill-rule:nonzero;" />
        <path d="M101.779,165.542c1.39,0 2.132,-0.891 2.243,-2.198c0,-0.19 0.019,-0.379 0.019,-0.569c0.111,-2.292 0.964,-3.297 3.985,-5.324c3.263,-2.198 5.191,-4.699 5.191,-8.318c0,-5.76 -4.597,-9.133 -10.567,-9.133c-4.468,0 -8.212,2.046 -9.807,5.571c-0.408,0.871 -0.593,1.762 -0.593,2.558c0,1.326 0.797,2.235 2.188,2.235c1.112,0 1.928,-0.625 2.28,-1.667c0.927,-3.202 3.003,-4.453 5.728,-4.453c3.263,0 5.821,1.914 5.821,4.908c0,2.577 -1.501,3.96 -4.06,5.722c-2.799,1.952 -4.801,4.055 -4.801,7.219l0,1.004c0,1.44 0.871,2.445 2.373,2.445Zm0.018,10.572c1.706,0 3.078,-1.383 3.078,-3.088c0,-1.724 -1.372,-3.089 -3.078,-3.089c-1.687,0 -3.058,1.365 -3.058,3.089c0,1.705 1.371,3.088 3.058,3.088Z" style="fill-opacity:0.25;fill-rule:nonzero;" />
        <path d="M146.506,-5.887c1.391,0 2.132,-0.891 2.243,-2.198c0,-0.189 0.019,-0.379 0.019,-0.568c0.111,-2.293 0.964,-3.297 3.986,-5.325c3.262,-2.198 5.191,-4.699 5.191,-8.318c0,-5.76 -4.598,-9.133 -10.568,-9.133c-4.467,0 -8.212,2.047 -9.806,5.571c-0.408,0.872 -0.594,1.762 -0.594,2.558c0,1.326 0.797,2.236 2.188,2.236c1.112,0 1.928,-0.625 2.28,-1.668c0.927,-3.202 3.003,-4.452 5.729,-4.452c3.262,0 5.821,1.913 5.821,4.907c0,2.577 -1.502,3.96 -4.06,5.722c-2.8,1.952 -4.802,4.055 -4.802,7.22l0,1.004c0,1.44 0.872,2.444 2.373,2.444Zm0.019,10.573c1.705,0 3.077,-1.383 3.077,-3.089c0,-1.724 -1.372,-3.088 -3.077,-3.088c-1.687,0 -3.059,1.364 -3.059,3.088c0,1.706 1.372,3.089 3.059,3.089Z" style="fill-opacity:0.25;fill-rule:nonzero;" />
        <path d="M146.506,62.684c1.391,0 2.132,-0.89 2.243,-2.197c0,-0.19 0.019,-0.379 0.019,-0.569c0.111,-2.293 0.964,-3.297 3.986,-5.324c3.262,-2.198 5.191,-4.699 5.191,-8.318c0,-5.76 -4.598,-9.133 -10.568,-9.133c-4.467,0 -8.212,2.046 -9.806,5.571c-0.408,0.871 -0.594,1.762 -0.594,2.557c0,1.327 0.797,2.236 2.188,2.236c1.112,0 1.928,-0.625 2.28,-1.667c0.927,-3.202 3.003,-4.453 5.729,-4.453c3.262,0 5.821,1.914 5.821,4.908c0,2.577 -1.502,3.96 -4.06,5.722c-2.8,1.951 -4.802,4.055 -4.802,7.219l0,1.004c0,1.44 0.872,2.444 2.373,2.444Zm0.019,10.573c1.705,0 3.077,-1.383 3.077,-3.088c0,-1.724 -1.372,-3.089 -3.077,-3.089c-1.687,0 -3.059,1.365 -3.059,3.089c0,1.705 1.372,3.088 3.059,3.088Z" style="fill-opacity:0.25;fill-rule:nonzero;" />
        <path d="M146.506,131.256c1.391,0 2.132,-0.891 2.243,-2.198c0,-0.19 0.019,-0.379 0.019,-0.568c0.111,-2.293 0.964,-3.297 3.986,-5.325c3.262,-2.198 5.191,-4.699 5.191,-8.318c0,-5.76 -4.598,-9.133 -10.568,-9.133c-4.467,0 -8.212,2.047 -9.806,5.571c-0.408,0.872 -0.594,1.762 -0.594,2.558c0,1.326 0.797,2.236 2.188,2.236c1.112,0 1.928,-0.626 2.28,-1.668c0.927,-3.202 3.003,-4.452 5.729,-4.452c3.262,0 5.821,1.913 5.821,4.907c0,2.577 -1.502,3.96 -4.06,5.722c-2.8,1.952 -4.802,4.055 -4.802,7.219l0,1.005c0,1.44 0.872,2.444 2.373,2.444Zm0.019,10.573c1.705,0 3.077,-1.383 3.077,-3.089c0,-1.724 -1.372,-3.088 -3.077,-3.088c-1.687,0 -3.059,1.364 -3.059,3.088c0,1.706 1.372,3.089 3.059,3.089Z" style="fill-opacity:0.25;fill-rule:nonzero;" />
        <path d="M191.233,28.399c1.391,0 2.132,-0.891 2.244,-2.198c0,-0.19 0.018,-0.379 0.018,-0.569c0.111,-2.292 0.964,-3.297 3.986,-5.324c3.263,-2.198 5.191,-4.699 5.191,-8.318c0,-5.76 -4.598,-9.133 -10.567,-9.133c-4.468,0 -8.213,2.047 -9.807,5.571c-0.408,0.871 -0.593,1.762 -0.593,2.558c0,1.326 0.797,2.236 2.187,2.236c1.112,0 1.928,-0.626 2.28,-1.668c0.927,-3.202 3.004,-4.453 5.729,-4.453c3.263,0 5.821,1.914 5.821,4.908c0,2.577 -1.502,3.96 -4.06,5.722c-2.799,1.952 -4.802,4.055 -4.802,7.219l0,1.004c0,1.441 0.872,2.445 2.373,2.445Zm0.019,10.573c1.706,0 3.077,-1.384 3.077,-3.089c0,-1.724 -1.371,-3.088 -3.077,-3.088c-1.687,0 -3.059,1.364 -3.059,3.088c0,1.705 1.372,3.089 3.059,3.089Z" style="fill-opacity:0.25;fill-rule:nonzero;" />
        <path d="M191.233,96.97c1.391,0 2.132,-0.89 2.244,-2.198c0,-0.189 0.018,-0.379 0.018,-0.568c0.111,-2.293 0.964,-3.297 3.986,-5.325c3.263,-2.197 5.191,-4.699 5.191,-8.318c0,-5.76 -4.598,-9.132 -10.567,-9.132c-4.468,0 -8.213,2.046 -9.807,5.57c-0.408,0.872 -0.593,1.762 -0.593,2.558c0,1.327 0.797,2.236 2.187,2.236c1.112,0 1.928,-0.625 2.28,-1.667c0.927,-3.203 3.004,-4.453 5.729,-4.453c3.263,0 5.821,1.914 5.821,4.907c0,2.577 -1.502,3.96 -4.06,5.723c-2.799,1.951 -4.802,4.054 -4.802,7.219l0,1.004c0,1.44 0.872,2.444 2.373,2.444Zm0.019,10.573c1.706,0 3.077,-1.383 3.077,-3.088c0,-1.725 -1.371,-3.089 -3.077,-3.089c-1.687,0 -3.059,1.364 -3.059,3.089c0,1.705 1.372,3.088 3.059,3.088Z" style="fill-opacity:0.25;fill-rule:nonzero;" />
        <path d="M191.233,165.542c1.391,0 2.132,-0.891 2.244,-2.198c0,-0.19 0.018,-0.379 0.018,-0.569c0.111,-2.292 0.964,-3.297 3.986,-5.324c3.263,-2.198 5.191,-4.699 5.191,-8.318c0,-5.76 -4.598,-9.133 -10.567,-9.133c-4.468,0 -8.213,2.046 -9.807,5.571c-0.408,0.871 -0.593,1.762 -0.593,2.558c0,1.326 0.797,2.235 2.187,2.235c1.112,0 1.928,-0.625 2.28,-1.667c0.927,-3.202 3.004,-4.453 5.729,-4.453c3.263,0 5.821,1.914 5.821,4.908c0,2.577 -1.502,3.96 -4.06,5.722c-2.799,1.952 -4.802,4.055 -4.802,7.219l0,1.004c0,1.44 0.872,2.445 2.373,2.445Zm0.019,10.572c1.706,0 3.077,-1.383 3.077,-3.088c0,-1.724 -1.371,-3.089 -3.077,-3.089c-1.687,0 -3.059,1.365 -3.059,3.089c0,1.705 1.372,3.088 3.059,3.088Z" style="fill-opacity:0.25;fill-rule:nonzero;" />
        <path d="M235.961,-5.887c1.39,0 2.132,-0.891 2.243,-2.198c0,-0.189 0.018,-0.379 0.018,-0.568c0.112,-2.293 0.964,-3.297 3.986,-5.325c3.263,-2.198 5.191,-4.699 5.191,-8.318c0,-5.76 -4.598,-9.133 -10.567,-9.133c-4.468,0 -8.213,2.047 -9.807,5.571c-0.408,0.872 -0.593,1.762 -0.593,2.558c0,1.326 0.797,2.236 2.187,2.236c1.113,0 1.928,-0.625 2.281,-1.668c0.927,-3.202 3.003,-4.452 5.728,-4.452c3.263,0 5.821,1.913 5.821,4.907c0,2.577 -1.501,3.96 -4.06,5.722c-2.799,1.952 -4.801,4.055 -4.801,7.22l0,1.004c0,1.44 0.871,2.444 2.373,2.444Zm0.018,10.573c1.706,0 3.078,-1.383 3.078,-3.089c0,-1.724 -1.372,-3.088 -3.078,-3.088c-1.687,0 -3.059,1.364 -3.059,3.088c0,1.706 1.372,3.089 3.059,3.089Z" style="fill-opacity:0.25;fill-rule:nonzero;" />
        <path d="M235.961,62.684c1.39,0 2.132,-0.89 2.243,-2.197c0,-0.19 0.018,-0.379 0.018,-0.569c0.112,-2.293 0.964,-3.297 3.986,-5.324c3.263,-2.198 5.191,-4.699 5.191,-8.318c0,-5.76 -4.598,-9.133 -10.567,-9.133c-4.468,0 -8.213,2.046 -9.807,5.571c-0.408,0.871 -0.593,1.762 -0.593,2.557c0,1.327 0.797,2.236 2.187,2.236c1.113,0 1.928,-0.625 2.281,-1.667c0.927,-3.202 3.003,-4.453 5.728,-4.453c3.263,0 5.821,1.914 5.821,4.908c0,2.577 -1.501,3.96 -4.06,5.722c-2.799,1.951 -4.801,4.055 -4.801,7.219l0,1.004c0,1.44 0.871,2.444 2.373,2.444Zm0.018,10.573c1.706,0 3.078,-1.383 3.078,-3.088c0,-1.724 -1.372,-3.089 -3.078,-3.089c-1.687,0 -3.059,1.365 -3.059,3.089c0,1.705 1.372,3.088 3.059,3.088Z" style="fill-opacity:0.25;fill-rule:nonzero;" />
        <path d="M235.961,131.256c1.39,0 2.132,-0.891 2.243,-2.198c0,-0.19 0.018,-0.379 0.018,-0.568c0.112,-2.293 0.964,-3.297 3.986,-5.325c3.263,-2.198 5.191,-4.699 5.191,-8.318c0,-5.76 -4.598,-9.133 -10.567,-9.133c-4.468,0 -8.213,2.047 -9.807,5.571c-0.408,0.872 -0.593,1.762 -0.593,2.558c0,1.326 0.797,2.236 2.187,2.236c1.113,0 1.928,-0.626 2.281,-1.668c0.927,-3.202 3.003,-4.452 5.728,-4.452c3.263,0 5.821,1.913 5.821,4.907c0,2.577 -1.501,3.96 -4.06,5.722c-2.799,1.952 -4.801,4.055 -4.801,7.219l0,1.005c0,1.44 0.871,2.444 2.373,2.444Zm0.018,10.573c1.706,0 3.078,-1.383 3.078,-3.089c0,-1.724 -1.372,-3.088 -3.078,-3.088c-1.687,0 -3.059,1.364 -3.059,3.088c0,1.706 1.372,3.089 3.059,3.089Z" style="fill-opacity:0.25;fill-rule:nonzero;" />
    </g>
</svg>